<?xml version="1.0" encoding="UTF-8"?>
<svg width="380px" height="114px" viewBox="0 0 380 114" version="1.1" xmlns="http://www.w3.org/2000/svg" xmlns:xlink="http://www.w3.org/1999/xlink">
    <!-- Generator: Sketch 58 (84663) - https://sketch.com -->
    <title>logo-relive</title>
    <desc>Created with Sketch.</desc>
    <g id="Core-visual-style" stroke="none" stroke-width="1" fill="none" fill-rule="evenodd">
        <g id="06-logo" transform="translate(-152.000000, -948.000000)">
            <g id="logo-relive" transform="translate(152.000000, 948.000000)">
                <g id="Group-5">
                    <g id="Group-2" transform="translate(133.675889, 18.206056)" fill="#FFFFFF">
                        <path d="M152.11936,1.25070374 C153.816543,2.07117869 155.210238,3.54703284 156.300444,5.67826618 C156.419713,6.13885153 156.19883,6.65235077 155.637795,7.21876388 C154.796243,8.06838356 139.534199,26.4686981 130.031914,51.8732256 C129.057099,54.8388509 128.293752,57.6462048 127.741871,60.2952874 C127.28912,63.9528617 128.320823,65.1221802 130.83698,63.8032431 C134.434353,61.9175461 134.674925,59.855202 140.638103,50.4051125 C141.3855,48.8776404 142.462488,47.0916348 144.029308,45.0601671 C146.320505,41.9346389 147.499835,40.3718748 147.567297,40.3718748 C148.430134,38.9249304 152.225913,39.7669308 152.833072,40.3718748 C153.845004,41.0776428 154.350962,42.0858676 154.350962,43.3965795 C154.350962,43.7998755 154.148579,44.5056329 153.743806,45.5138728 C152.730943,47.0643649 151.549889,49.2175389 150.200647,51.9733947 C149.087522,54.3931706 147.923814,56.5946595 147.316655,58.6111394 L146.566557,61.6359442 C146.566557,61.8375922 146.617153,62.1953696 146.566557,62.8507255 C146.51596,63.5060815 147.013076,64.0218008 147.316655,64.2234488 C147.417848,64.3242728 147.620232,64.3998897 147.923811,64.4503017 C148.227391,64.5007137 148.48037,64.475508 148.682756,64.374684 C149.188722,64.27386 149.897064,63.9209814 150.807803,63.3160374 C151.111382,63.1143894 151.971512,62.3078095 153.388216,60.8962736 C156.953674,56.2880861 159.701321,52.7617188 162.377594,49.0725586 C165.055425,45.3153095 166.950181,42.5900533 168.061292,40.8957257 C170.658228,37.7160361 171.778464,35.0410707 174.018969,32.7193809 C174.833698,31.8108936 175.852095,31.3566568 177.074188,31.3566568 C178.0926,31.3566568 179.060076,31.7099521 179.976646,32.4165533 C180.893217,33.3250406 181.351495,34.3849266 181.351495,35.596243 C181.351495,36.5047303 181.045976,37.3627332 180.434929,38.1702774 C176.290033,43.4655455 174.78278,50.0389022 173.560686,55.792655 C173.173935,57.3710787 173.359116,58.5171463 173.359116,60.3160098 C173.359116,62.059431 174.22265,62.8507255 174.324491,62.8507255 C174.426332,62.9516686 174.782771,63.1030808 175.393818,63.3049669 C175.951303,63.3723729 177.074188,63.3723729 179.518363,61.4880014 C180.536775,60.7814002 181.555171,59.8224557 182.573582,58.6111394 C183.28647,57.8035951 184.253947,56.5922969 185.47604,54.9772083 C186.698134,53.3621198 187.563771,52.1508216 188.072976,51.3432773 C189.600594,48.8197015 190.873589,46.2961636 191.892,43.7725877 C192.910412,41.2490119 193.979728,38.1198248 195.09998,34.3849326 C195.405503,32.6689011 196.4239,31.5585444 198.155199,31.0538292 L199.071765,31.0538292 C200.701223,31.0538292 201.923298,31.7099491 202.738027,33.0222085 C203.043551,33.5269237 203.24723,34.2839851 203.349071,35.2934154 C203.450912,36.3028457 203.552752,37.0599071 203.654593,37.5646223 C204.28624,40.773265 205.346366,43.1627912 206.834993,44.7332396 L206.825065,44.7520985 C206.926857,44.552878 207.792077,43.4073778 209.42075,41.3155635 C210.336879,40.2198512 211.40568,39.1739597 212.627185,38.1778576 C215.171987,36.1856535 217.665855,34.5919141 220.108865,33.3965916 C221.533954,32.5997099 223.162603,32.0020576 224.99486,31.6036168 C225.503821,31.5040066 226.36904,31.4542022 227.590545,31.4542022 C228.710258,31.4542022 229.88085,31.6036153 231.102355,31.9024459 C233.443572,32.5001072 235.224907,33.8946292 236.446412,36.0860537 C237.566125,37.8790375 237.922392,40.0206248 237.515224,42.51088 C237.006263,45.8976271 235.123138,48.8858885 231.865791,51.4757539 C230.644286,52.5714661 229.219219,53.4181402 227.590545,54.0158015 C226.572625,54.5138525 225.045766,54.9620917 223.009925,55.3605325 C221.177667,55.5597529 219.85439,55.6593617 219.040054,55.6593617 C217.207796,55.6593617 215.477357,55.5099486 213.848683,55.211118 C213.034347,55.0118976 212.423604,54.8126801 212.016435,54.6134597 C211.405683,56.1076128 211.100311,57.4523305 211.100311,58.6476529 C211.100311,59.2453142 211.202102,59.7433578 211.405686,60.1417986 C211.507478,60.6398496 211.81285,61.1378932 212.32181,61.6359442 C212.932562,62.0343851 213.441515,62.2834069 213.848683,62.3830171 C214.459436,62.6818477 215.27376,62.8312608 216.291681,62.8312608 C216.902434,62.8312608 217.818549,62.731652 219.040054,62.5324316 C223.620697,61.6359398 227.743214,59.9425916 231.407729,57.4523364 C235.174036,55.0616914 239.166595,52.3364029 241.971272,46.4905851 C242.582024,45.6937034 242.859276,46.0968295 243.775405,46.0968295 C244.284366,46.0968295 244.742423,46.2462426 245.149591,46.5450732 C246.167512,47.2423447 246.523779,48.2882362 246.218403,49.6827791 C244.080769,55.0617303 240.798024,59.7931442 236.370068,63.8771627 C231.942113,67.9611812 226.827138,70.7004208 221.024989,72.0949637 C218.989148,72.4934046 217.411394,72.692622 216.291681,72.692622 C214.25584,72.692622 212.321819,72.3439915 210.489562,71.6467201 C208.759096,71.0490588 207.028657,70.0031673 205.298192,68.5090142 C203.974895,67.1144713 202.906094,65.4211232 202.091757,63.428919 C201.582797,62.0343761 201.32832,60.490441 201.32832,58.7970675 C201.32832,56.8048634 201.684587,54.7628847 202.397132,52.6710704 C202.739199,51.8007597 203.132991,50.9248293 203.578509,50.043276 C202.425572,49.3099723 201.381379,48.3801679 200.446613,47.255105 C199.22452,50.384339 197.798765,53.3621138 196.169307,56.1885187 C195.252736,57.6017211 194.23434,59.0653732 193.114088,60.5795186 C191.077265,63.2040375 189.957029,64.6172188 189.753347,64.8191048 C188.022048,66.6360794 186.443534,68.1249668 185.017758,69.2858117 C183.591982,70.4466566 181.860708,71.3803656 179.823885,72.0869668 C178.194427,72.490739 176.870512,72.692622 175.852101,72.692622 L173.866208,72.5412082 L171.880316,72.0869668 C170.658222,71.6831947 169.436147,70.9513687 168.214053,69.8914669 C166.99196,68.831565 166.075403,67.6455022 165.464356,66.3332427 C164.445945,64.2134391 164.038586,61.9422549 164.242269,59.5196221 C164.329483,58.6119478 164.435368,57.7320399 164.559926,56.879894 C164.323486,57.3039616 164.089079,57.7350217 163.86166,58.1740394 C161.736603,61.8037032 160.168132,64.273854 159.1562,65.5845659 C157.435915,67.6010458 156.373403,68.7605044 155.96863,69.0629763 C154.551925,70.4745123 152.882263,71.4827371 150.959592,72.0876811 C150.048853,72.490977 148.885149,72.692622 147.468444,72.692622 C146.355319,72.692622 145.292806,72.5413883 144.280874,72.2389163 C143.167749,71.8356203 142.105237,71.2054798 141.093305,70.3484758 C140.081373,69.4914719 139.322435,68.5084527 138.816469,67.3993888 C138.708178,67.1716088 138.618487,66.8684716 138.545352,66.5082368 C138.104224,66.9250517 137.645341,67.3478322 137.170005,67.7747166 C135.728383,69.0693931 134.055894,70.4136808 132.126183,71.3292 C121.272311,75.5205587 118.305447,68.9817489 118.388954,62.3317935 C117.805487,62.8352153 117.223205,63.3476745 116.649126,63.8771627 C112.221171,67.9611812 107.106195,70.7004208 101.304047,72.0949637 C99.2682054,72.4934046 97.6904518,72.692622 96.570739,72.692622 C94.5348974,72.692622 92.6008769,72.3439915 90.7686194,71.6467201 C89.0381541,71.0490588 87.3077147,70.0031673 85.5772494,68.5090142 C84.2539523,67.1144713 83.1851515,65.4211232 82.3708149,63.428919 C81.8618545,62.0343761 81.6073781,60.490441 81.6073781,58.7970675 C81.6073781,56.8048634 81.9636451,54.7628847 82.6761896,52.6710704 C83.6941104,50.081205 85.1700734,47.4415741 87.1041229,44.7520985 C87.205915,44.552878 88.0711347,43.4073778 89.699808,41.3155635 C90.6159367,40.2198512 91.6847375,39.1739597 92.9062424,38.1778576 C95.4510444,36.1856535 97.9449129,34.5919141 100.387923,33.3965916 C101.813012,32.5997099 103.441661,32.0020576 105.273918,31.6036168 C105.782879,31.5040066 106.648098,31.4542022 107.869603,31.4542022 C108.989316,31.4542022 110.159907,31.6036153 111.381412,31.9024459 C113.72263,32.5001072 115.503965,33.8946292 116.72547,36.0860537 C117.845183,37.8790375 118.20145,40.0206248 117.794281,42.51088 C117.285321,45.8976271 115.402196,48.8858885 112.144849,51.4757539 C110.923344,52.5714661 109.498277,53.4181402 107.869603,54.0158015 C106.851682,54.5138525 105.324824,54.9620917 103.288983,55.3605325 C101.456725,55.5597529 100.133448,55.6593617 99.3191113,55.6593617 C97.4868539,55.6593617 95.7564145,55.5099486 94.1277413,55.211118 C93.3134046,55.0118976 92.7026613,54.8126801 92.295493,54.6134597 C91.6847405,56.1076128 91.3793689,57.4523305 91.3793689,58.6476529 C91.3793689,59.2453142 91.4811594,59.7433578 91.6847436,60.1417986 C91.7865357,60.6398496 92.0919073,61.1378932 92.6008677,61.6359442 C93.2116202,62.0343851 93.720573,62.2834069 94.1277413,62.3830171 C94.7384937,62.6818477 95.5528182,62.8312608 96.570739,62.8312608 C97.1814914,62.8312608 98.0976064,62.731652 99.3191113,62.5324316 C103.899755,61.6359398 108.022272,59.9425916 111.686787,57.4523364 C115.268563,55.1788218 119.67211,51.982831 122.507315,46.6471346 C126.197074,36.7392165 133.799186,19.8076623 145.317498,4.46385352 L146.584338,2.8493611 C148.57717,0.963114569 150.422178,0.430228783 152.11936,1.25070374 Z M106.800792,38.7755159 C106.393623,38.7755159 105.986461,38.8751246 105.579293,39.074345 C105.172125,39.1739552 104.663172,39.422977 104.052419,39.8214178 C102.220162,40.8175199 100.489723,42.3116506 98.8610493,44.3038548 C98.3520889,44.8019058 97.6904503,45.6485799 96.8761137,46.8439024 L95.0438654,49.38395 C97.4868753,49.5831704 99.7262675,49.3839529 101.762109,48.7862917 C102.474654,48.5870713 103.441664,48.1886364 104.663169,47.5909752 C105.68109,46.7940935 106.393623,46.1466369 106.800792,45.6485858 C108.022297,44.1544327 108.683935,42.6104977 108.785727,41.0167343 C108.785727,39.9210221 108.378565,39.2237611 107.564229,38.9249304 C107.462436,38.8253202 107.20796,38.7755159 106.800792,38.7755159 Z M226.521734,38.7755159 C226.114566,38.7755159 225.707403,38.8751246 225.300235,39.074345 C224.893067,39.1739552 224.384114,39.422977 223.773362,39.8214178 C221.941104,40.8175199 220.210665,42.3116506 218.581991,44.3038548 C218.073031,44.8019058 217.411392,45.6485799 216.597056,46.8439024 L214.764808,49.38395 C217.207817,49.5831704 219.44721,49.3839529 221.483051,48.7862917 C222.195596,48.5870713 223.162606,48.1886364 224.384111,47.5909752 C225.402032,46.7940935 226.114566,46.1466369 226.521734,45.6485858 C227.743239,44.1544327 228.404877,42.6104977 228.50667,41.0167343 C228.50667,39.9210221 228.099507,39.2237611 227.285171,38.9249304 C227.183379,38.8253202 226.928902,38.7755159 226.521734,38.7755159 Z M156.6578,25.7384497 C159.52389,26.1348589 161.520781,28.7426735 161.117991,31.5631814 C160.715175,34.3836858 158.065211,36.3488151 155.199117,35.9524317 C152.333027,35.5560225 150.336136,32.9482078 150.738926,30.1276999 C151.141742,27.3071956 153.791705,25.3420663 156.6578,25.7384497 Z" id="Combined-Shape"></path>
                        <g id="Group-2-Copy" transform="translate(0.000000, 0.375441)">
                            <path d="M0.553554412,31.8038994 C5.06706283,11.3920893 56.4984655,-6.55042246 80.9466794,2.33049961 C105.892252,11.3920893 95.9041353,30.9652761 80.8132715,39.5497908 C68.1728236,46.7403739 59.8318965,47.015935 52.9802613,46.6761545 C52.8606864,53.414048 54.6740262,58.0743753 58.4195778,60.6570245 C64.6533888,64.9553892 74.5220329,59.2300887 88.0255103,43.4811228 L90.7443071,47.0936232 L90.7443071,49.2569218 C78.6912344,64.2956259 68.4275193,71.814978 59.9531617,71.814978 C47.2416254,71.814978 45.4068428,59.2970168 44.9384817,54.7571827 C44.626241,51.7306267 44.4701206,50.2173487 44.4701206,50.2173487 C40.3661137,58.896184 36.8382339,64.61881 33.886481,67.3852267 C30.9347282,70.1516435 28.4792182,71.6282272 26.5199511,71.814978 C23.4475019,71.3503533 22.6236338,69.3599845 24.0483469,65.8438716 C25.47306,62.3277587 27.6573429,58.4634413 30.6011958,54.2509192 C36.4734301,45.6487827 41.0700395,38.143872 44.3910238,31.7361871 C49.3725003,22.1246598 51.1684923,21.8871385 53.9249601,22.6364308 C55.7626052,23.135959 56.3791766,25.7560109 55.7746742,30.4965865 C54.7538444,34.1064135 54.012087,37.4161583 53.5494018,40.4258208 C65.9622109,41.3464262 84.0162519,31.7955981 84.0162519,21.0639768 C84.0162519,10.017361 62.4467255,4.38820647 39.1438164,15.8302 C15.8409072,27.2721936 11.7717529,44.6139399 11.1703518,46.0794169 C10.7694177,47.0564015 9.63069098,47.4446456 7.75417166,47.244149 C1.20352377,44.8658871 -1.19668197,39.7191372 0.553554412,31.8038994 Z" id="Combined-Shape-Copy"></path>
                        </g>
                    </g>
                    <g id="Group-4">
                        <path d="M27.5362319,0 L86.0131752,0 C101.221016,0 113.549407,12.366408 113.549407,27.6211454 L113.549407,86.1405212 C113.549407,101.395259 101.221016,113.761667 86.0131752,113.761667 L27.5362319,113.761667 C12.3283909,113.761667 0,101.395259 0,86.1405212 L0,27.6211454 C0,12.366408 12.3283909,0 27.5362319,0 Z" id="Rectangle" fill="#FFDD00"></path>
                        <path d="M66.2017648,66.1989359 C72.6135848,63.2432352 76.7217589,56.8189906 76.7218453,49.7479362 C76.7218453,39.746518 68.629061,31.6387665 58.6461056,31.6387665 C48.6631503,31.6387665 40.570366,39.746518 40.570366,49.7479362 C40.6049807,51.1549914 41.7534562,52.2775823 43.1583403,52.2775823 C44.5632245,52.2775823 45.7117,51.1549914 45.7463147,49.7479362 C45.7463146,45.1299174 48.2054502,40.862692 52.1973889,38.5536825 C56.1893277,36.2446731 61.107599,36.2446731 65.0995378,38.5536825 C69.0914765,40.862692 71.5506121,45.1299174 71.550612,49.7479362 C71.5611744,52.6660199 70.5750235,55.4999182 68.7559454,57.7789593 C67.3699457,59.5191492 65.5619846,60.8745104 63.5045501,61.7157353 L57.2802084,51.4391752 C56.8110197,50.6636043 55.9715468,50.1898957 55.0663233,50.1898957 C54.1610998,50.1898957 53.3216268,50.6636043 52.8524381,51.4391752 L36.4585281,78.5808838 C35.9494054,79.3743871 35.9104625,80.3822611 36.3568338,81.21282 C36.803205,82.0433789 37.6644978,82.5656437 38.6059914,82.5766489 C39.5474849,82.587654 40.4207061,82.085664 40.8862985,81.2657651 L54.6914482,58.4088435 C54.9162161,58.0387865 55.2227177,58.0387865 55.4113341,58.3537286 L56.5776123,60.2906224 L60.1330317,66.1753152 L69.2573507,81.2673398 C70.0157097,82.449295 71.5756342,82.8112831 72.775468,82.083736 C73.9753018,81.356189 74.3786397,79.8037312 73.6851211,78.5824585 L66.2017648,66.1989359 Z" id="Shape-Copy" fill="#242115" fill-rule="nonzero"></path>
                    </g>
                </g>
            </g>
        </g>
    </g>
</svg>